<svg width="400" height="400" viewBox="0 0 400 400" fill="none" xmlns="http://www.w3.org/2000/svg">
<rect width="400" height="400" rx="200" fill="black"/>
<path d="M223.866 169.666L224.657 170.068L223.866 169.666ZM311.024 169.666L311.815 169.264L311.024 169.666ZM277.544 103.781L276.752 104.183L277.544 103.781ZM257.346 103.781L256.555 103.379L257.346 103.781ZM218.405 213.692C217.915 213.692 217.518 214.09 217.518 214.58C217.518 215.07 217.915 215.467 218.405 215.467V213.692ZM315.475 215.467C315.966 215.467 316.363 215.07 316.363 214.58C316.363 214.09 315.966 213.692 315.475 213.692V215.467ZM218.405 226.635C217.915 226.635 217.518 227.032 217.518 227.523C217.518 228.013 217.915 228.41 218.405 228.41V226.635ZM285.545 228.41C286.036 228.41 286.433 228.013 286.433 227.523C286.433 227.032 286.036 226.635 285.545 226.635V228.41ZM218.405 239.578C217.915 239.578 217.518 239.975 217.518 240.465C217.518 240.955 217.915 241.353 218.405 241.353V239.578ZM294.443 241.353C294.934 241.353 295.331 240.955 295.331 240.465C295.331 239.975 294.934 239.578 294.443 239.578V241.353ZM218.405 252.52C217.915 252.52 217.518 252.918 217.518 253.408C217.518 253.898 217.915 254.295 218.405 254.295V252.52ZM300.915 254.295C301.405 254.295 301.802 253.898 301.802 253.408C301.802 252.918 301.405 252.52 300.915 252.52V254.295ZM218.405 265.463C217.915 265.463 217.518 265.861 217.518 266.351C217.518 266.841 217.915 267.238 218.405 267.238V265.463ZM276.647 267.238C277.137 267.238 277.535 266.841 277.535 266.351C277.535 265.861 277.137 265.463 276.647 265.463V267.238ZM218.405 278.406C217.915 278.406 217.518 278.803 217.518 279.293C217.518 279.784 217.915 280.181 218.405 280.181V278.406ZM291.208 280.181C291.698 280.181 292.095 279.784 292.095 279.293C292.095 278.803 291.698 278.406 291.208 278.406V280.181ZM218.405 291.349C217.915 291.349 217.518 291.746 217.518 292.236C217.518 292.726 217.915 293.124 218.405 293.124V291.349ZM260.469 293.124C260.959 293.124 261.356 292.726 261.356 292.236C261.356 291.746 260.959 291.349 260.469 291.349V293.124ZM218.405 304.291C217.915 304.291 217.518 304.689 217.518 305.179C217.518 305.669 217.915 306.066 218.405 306.066V304.291ZM247.526 306.066C248.016 306.066 248.414 305.669 248.414 305.179C248.414 304.689 248.016 304.291 247.526 304.291V306.066ZM127.367 88.1048L127.443 88.989L127.443 88.989L127.367 88.1048ZM111.863 92.0861L112.228 92.895L112.228 92.895L111.863 92.0861ZM92.3771 108.814L93.1318 109.281L93.1318 109.281L92.3771 108.814ZM84.4124 145.001L85.2915 144.88L85.2915 144.88L84.4124 145.001ZM102.29 174.337L101.775 175.06L101.775 175.06L102.29 174.337ZM128.351 183.227L128.418 182.342H128.418L128.351 183.227ZM165.73 172.978L166.211 173.723L165.73 172.978ZM179.257 161.148L178.566 160.59V160.59L179.257 161.148ZM186.367 148.474L185.528 148.183L185.528 148.183L186.367 148.474ZM187.662 145.529L188.427 145.978L188.427 145.978L187.662 145.529ZM189.098 142.645L188.286 142.287L188.286 142.287L189.098 142.645ZM182.853 102.767L183.475 102.134L183.475 102.134L182.853 102.767ZM174.215 96.8685L174.6 96.0689L174.6 96.0689L174.215 96.8685ZM165.098 93.6787L165.308 92.8166L165.308 92.8166L165.098 93.6787ZM160.744 92.3538L161.09 91.5364L161.09 91.5364L160.744 92.3538ZM150.294 89.4639L150.155 90.3404L150.155 90.3404L150.294 89.4639ZM141.56 88.6291L141.562 87.7416L141.562 87.7416L141.56 88.6291ZM137.838 88.3626L137.731 89.2436L137.731 89.2436L137.838 88.3626ZM135.039 88.6116L134.93 89.4923L134.93 89.4923L135.039 88.6116ZM136.032 88.7349L136.162 89.6128L136.142 87.8542L136.032 88.7349ZM135.22 88.8549L135.349 89.7329L135.35 89.7329L135.22 88.8549ZM132.183 89.5422L132.1 88.6586L132.1 88.6586L132.183 89.5422ZM140.524 89.2671L140.373 90.1416L140.373 90.1416L140.524 89.2671ZM147.767 91.1195L147.484 91.9609L147.485 91.9609L147.767 91.1195ZM149.753 91.7857L149.798 92.672L150.035 90.9443L149.753 91.7857ZM147.225 91.914L147.27 92.8004L147.27 92.8004L147.225 91.914ZM133.831 93.6843L133.622 92.8218V92.8218L133.831 93.6843ZM125.57 96.3528L125.214 95.5399L125.214 95.5399L125.57 96.3528ZM124.117 96.9893L124.129 97.8767L124.309 97.8743L124.473 97.8022L124.117 96.9893ZM121.048 97.0301L121.036 96.1427L121.036 96.1427L121.048 97.0301ZM112.022 99.062L111.621 98.2701L111.621 98.2701L112.022 99.062ZM100.689 110.409L101.463 110.843L101.463 110.843L100.689 110.409ZM96.3903 121.067L95.5328 120.838L95.5328 120.838L96.3903 121.067ZM95.0349 124.856L94.2299 124.482L94.2299 124.482L95.0349 124.856ZM92.8959 153.594L92.0539 153.874L92.0539 153.874L92.8959 153.594ZM108.862 172.714L109.315 171.95L109.315 171.95L108.862 172.714ZM123.857 178.013L123.708 178.888L123.708 178.888L123.857 178.013ZM138.108 178.121L137.97 177.244L138.108 178.121ZM165.91 164.505L165.299 163.861L165.299 163.861L165.91 164.505ZM170.153 161.509L170.556 162.3L170.556 162.3L170.153 161.509ZM183.776 151.128L183.096 150.557L183.096 150.557L183.776 151.128ZM185.365 149.369L185.993 148.742L185.993 148.742L185.365 149.369ZM183.182 154.166L183.963 154.587L183.963 154.587L183.182 154.166ZM155.681 177.732L155.32 176.921L155.32 176.921L155.681 177.732ZM128.36 182.684L128.427 181.799L128.427 181.799L128.36 182.684ZM97.6114 169.688L97.0008 170.332L97.0008 170.332L97.6114 169.688ZM84.9551 145.075L84.0771 145.204L84.0771 145.204L84.9551 145.075ZM89.2158 116.254L90.0316 116.603L90.0316 116.603L89.2158 116.254ZM105.346 96.3686L105.838 97.1071L105.838 97.1071L105.346 96.3686ZM127.728 88.5744L127.803 89.4587L127.803 89.4587L127.728 88.5744ZM146.903 89.5296L147.004 88.6479L147.004 88.6479L146.903 89.5296ZM156.793 91.5306L156.524 92.3763L156.524 92.3763L156.793 91.5306ZM158.057 92.4313L158.195 91.5546L158.195 91.5546L158.057 92.4313ZM154.196 92.0709L154.135 92.9563L154.136 92.9563L154.196 92.0709ZM149.502 91.1652L149.813 90.3339L149.813 90.3338L149.502 91.1652ZM145.871 89.9773L146.107 89.1217L146.107 89.1217L145.871 89.9773ZM153.183 93.2996L152.797 94.099L152.797 94.099L153.183 93.2996ZM173.073 113.095L172.283 113.499V113.499L173.073 113.095ZM177.911 142.521L177.041 142.347V142.348L177.911 142.521ZM172.16 156.121L171.42 155.631L171.42 155.631L172.16 156.121ZM167.422 162.133L166.84 161.463L166.84 161.463L167.422 162.133ZM153.634 167.091L153.853 167.951L153.853 167.951L153.634 167.091ZM135.22 169.272L135.238 168.385H135.238L135.22 169.272ZM123.638 167.886L123.856 167.026H123.856L123.638 167.886ZM101.416 151.999L102.16 151.516L102.16 151.516L101.416 151.999ZM96.5019 140.93L97.3609 140.707L97.3608 140.707L96.5019 140.93ZM95.6001 132.231L96.4876 132.233V132.233L95.6001 132.231ZM96.6995 122.844L97.4913 123.244L97.4913 123.244L96.6995 122.844ZM100.807 116.344L100.095 115.816V115.816L100.807 116.344ZM121.813 98.6175L121.421 97.8215L121.421 97.8215L121.813 98.6175ZM123.842 97.6177L124.004 96.745L123.714 96.6916L123.45 96.8217L123.842 97.6177ZM125.063 97.8432L125.224 96.9705L125.224 96.9705L125.063 97.8432ZM127.797 98.502L128.041 97.6489L128.041 97.6488L127.797 98.502ZM129.382 98.8636L128.754 98.2361L129.382 98.8636ZM126.407 97.7123L126.201 98.5755L126.201 98.5756L126.407 97.7123ZM125.052 97.294L124.466 97.9608L124.468 97.9622L125.052 97.294ZM127.156 96.3343L127.463 97.1671L127.463 97.1671L127.156 96.3343ZM148.308 92.4515L148.302 91.564L148.308 92.4515ZM151.377 92.4293L151.763 91.6299L151.577 91.5403L151.371 91.5418L151.377 92.4293ZM157.696 92.8907L157.797 92.009L157.797 92.009L157.696 92.8907ZM165.51 95.3494L165.072 96.1212L165.072 96.1212L165.51 95.3494ZM184.216 115.214L185.019 114.837L185.019 114.837L184.216 115.214ZM187.655 141.258L188.529 141.416V141.416L187.655 141.258ZM184.434 149.382L183.726 148.846L183.726 148.846L184.434 149.382ZM174.937 158.062L175.423 158.805L175.423 158.805L174.937 158.062ZM169.194 161.301L168.567 161.929L168.567 161.929L169.194 161.301ZM170.24 159.827L170.932 160.383L170.932 160.383L170.24 159.827ZM179.214 136.203L180.1 136.242L179.214 136.203ZM170.736 107.929L171.475 107.438L171.475 107.438L170.736 107.929ZM155.271 93.7555L154.845 94.5337L154.845 94.5337L155.271 93.7555ZM167.327 94.7877L167.08 95.64L167.327 94.7877ZM189.918 115.552L189.077 115.834L189.077 115.834L189.918 115.552ZM189.738 139.43L188.899 139.14L188.899 139.14L189.738 139.43ZM187.837 143.838L188.465 143.211L188.464 143.209L187.837 143.838ZM188.106 141.968L187.235 141.8L187.235 141.801L188.106 141.968ZM188.836 133.457L187.949 133.457V133.457L188.836 133.457ZM184.24 113.919L183.447 114.317L183.447 114.317L184.24 113.919ZM166.497 95.2216L166.053 95.99L166.053 95.99L166.497 95.2216ZM122.041 97.48L122.049 96.5926L122.049 96.5926L122.041 97.48ZM120.326 98.7141L120.737 99.5004L120.737 99.5004L120.326 98.7141ZM109.178 106.303L109.758 106.975L109.758 106.975L109.178 106.303ZM98.9033 117.989L98.1627 117.5L98.1626 117.5L98.9033 117.989ZM97.3505 120.336L98.0878 120.83L98.0879 120.83L97.3505 120.336ZM99.6761 113.568L98.8726 113.191L98.8726 113.191L99.6761 113.568ZM115.97 98.027L116.21 98.8815L116.21 98.8815L115.97 98.027ZM121.048 97.4074L120.887 98.2801L120.887 98.2801L121.048 97.4074ZM95.3076 126.725L94.4301 126.592L94.4301 126.592L95.3076 126.725ZM95.2074 136.753L96.0886 136.647L96.0886 136.647L95.2074 136.753ZM105.788 158.329L106.417 157.702L106.417 157.702L105.788 158.329ZM124.298 168.611L124.499 167.747H124.499L124.298 168.611ZM146.413 169.128L146.544 170.006H146.544L146.413 169.128ZM165.25 163.829L164.903 163.012L164.903 163.012L165.25 163.829ZM163.864 165.504L164.441 166.177L164.441 166.177L163.864 165.504ZM136.764 177.722L136.879 178.602H136.879L136.764 177.722ZM125.742 177.723L125.627 178.603L125.627 178.603L125.742 177.723ZM103.703 168.33L103.14 169.016L103.703 168.33ZM92.4439 149.698L93.3135 149.521L93.3135 149.521L92.4439 149.698ZM93.771 129.743L92.9286 129.464L92.9286 129.464L93.771 129.743ZM95.3945 125.661L96.0578 125.072L96.0567 125.07L95.3945 125.661ZM136.66 210.702H142.306V208.927H136.66V210.702ZM190.345 257.955V263.51H192.12V257.955H190.345ZM142.306 310.763H136.66V312.538H142.306V310.763ZM88.6209 263.51V257.955H86.846V263.51H88.6209ZM136.66 310.763C125.103 310.763 116.524 310.761 109.934 309.889C103.368 309.021 98.9107 307.303 95.521 303.968L94.2762 305.233C98.0517 308.948 102.943 310.755 109.701 311.649C116.434 312.539 125.153 312.538 136.66 312.538V310.763ZM86.846 263.51C86.846 274.831 86.8441 283.413 87.7498 290.041C88.6593 296.697 90.4987 301.516 94.2762 305.233L95.521 303.968C92.1334 300.634 90.3902 296.255 89.5084 289.801C88.6229 283.32 88.6209 274.882 88.6209 263.51H86.846ZM190.345 263.51C190.345 274.882 190.343 283.32 189.457 289.801C188.575 296.255 186.832 300.634 183.445 303.968L184.689 305.233C188.467 301.516 190.306 296.697 191.216 290.041C192.122 283.413 192.12 274.831 192.12 263.51H190.345ZM142.306 312.538C153.813 312.538 162.531 312.539 169.265 311.649C176.022 310.755 180.914 308.948 184.689 305.233L183.445 303.968C180.055 307.303 175.598 309.021 169.032 309.889C162.442 310.761 153.862 310.763 142.306 310.763V312.538ZM142.306 210.702C153.862 210.702 162.442 210.704 169.032 211.575C175.598 212.444 180.055 214.162 183.445 217.497L184.689 216.232C180.914 212.517 176.022 210.71 169.265 209.816C162.531 208.925 153.813 208.927 142.306 208.927V210.702ZM192.12 257.955C192.12 246.634 192.122 238.052 191.216 231.423C190.306 224.767 188.467 219.949 184.689 216.232L183.445 217.497C186.832 220.83 188.575 225.21 189.457 231.663C190.343 238.144 190.345 246.583 190.345 257.955H192.12ZM136.66 208.927C125.153 208.927 116.434 208.925 109.701 209.816C102.943 210.71 98.0517 212.517 94.2762 216.232L95.521 217.497C98.9107 214.162 103.368 212.444 109.934 211.575C116.524 210.704 125.103 210.702 136.66 210.702V208.927ZM88.6209 257.955C88.6209 246.583 88.6229 238.144 89.5084 231.663C90.3902 225.21 92.1334 220.83 95.521 217.497L94.2762 216.232C90.4987 219.949 88.6593 224.767 87.7498 231.423C86.8441 238.052 86.846 246.634 86.846 257.955H88.6209ZM276.752 104.183L310.233 170.068L311.815 169.264L278.335 103.379L276.752 104.183ZM300.925 184.857H233.964V186.632H300.925V184.857ZM224.657 170.068L258.137 104.183L256.555 103.379L223.074 169.264L224.657 170.068ZM233.964 184.857C229.841 184.857 226.849 184.854 224.674 184.537C222.51 184.22 221.398 183.623 220.779 182.638L219.276 183.582C220.312 185.23 222.074 185.951 224.418 186.293C226.751 186.634 229.9 186.632 233.964 186.632V184.857ZM223.074 169.264C221.257 172.84 219.845 175.613 219.111 177.822C218.372 180.045 218.237 181.928 219.276 183.582L220.779 182.638C220.163 181.657 220.117 180.422 220.795 178.382C221.478 176.33 222.812 173.698 224.657 170.068L223.074 169.264ZM310.233 170.068C312.077 173.698 313.412 176.33 314.095 178.382C314.773 180.422 314.727 181.657 314.11 182.638L315.613 183.582C316.652 181.928 316.518 180.045 315.779 177.822C315.044 175.613 313.632 172.84 311.815 169.264L310.233 170.068ZM300.925 186.632C304.99 186.632 308.139 186.634 310.472 186.293C312.815 185.951 314.578 185.23 315.613 183.582L314.11 182.638C313.491 183.623 312.38 184.22 310.215 184.537C308.041 184.854 305.049 184.857 300.925 184.857V186.632ZM278.335 103.379C276.145 99.0706 274.459 95.7468 272.874 93.5125C271.291 91.2806 269.636 89.8867 267.445 89.8867V91.6617C268.742 91.6617 269.934 92.4356 271.426 94.5394C272.917 96.6408 274.535 99.8206 276.752 104.183L278.335 103.379ZM258.137 104.183C260.354 99.8206 261.973 96.6408 263.463 94.5394C264.956 92.4356 266.147 91.6617 267.445 91.6617V89.8867C265.253 89.8867 263.599 91.2806 262.016 93.5125C260.431 95.7468 258.744 99.0706 256.555 103.379L258.137 104.183ZM218.405 215.467H315.475V213.692H218.405V215.467ZM218.405 228.41H285.545V226.635H218.405V228.41ZM218.405 241.353H294.443V239.578H218.405V241.353ZM218.405 254.295H300.915V252.52H218.405V254.295ZM218.405 267.238H276.647V265.463H218.405V267.238ZM218.405 280.181H291.208V278.406H218.405V280.181ZM218.405 293.124H260.469V291.349H218.405V293.124ZM218.405 306.066H247.526V304.291H218.405V306.066ZM127.291 87.2206C121.63 87.7063 116.486 89.0262 111.498 91.2771L112.228 92.895C117.026 90.7298 121.974 89.4583 127.443 88.989L127.291 87.2206ZM111.498 91.2771C103.04 95.0931 96.1861 100.969 91.6223 108.347L93.1318 109.281C97.4957 102.226 104.067 96.5769 112.228 92.895L111.498 91.2771ZM91.6223 108.347C85.0924 118.904 81.9038 133.365 83.5333 145.123L85.2915 144.88C83.7216 133.552 86.8079 119.504 93.1318 109.281L91.6223 108.347ZM83.5333 145.123C85.2298 157.366 91.6048 167.824 101.775 175.06L102.804 173.614C93.0273 166.657 86.92 156.633 85.2915 144.88L83.5333 145.123ZM101.775 175.06C109.286 180.405 117.859 183.32 128.283 184.112L128.418 182.342C118.269 181.571 110.017 178.746 102.804 173.614L101.775 175.06ZM128.283 184.112C141.247 185.098 154.057 181.574 166.211 173.723L165.248 172.232C153.379 179.899 140.95 183.295 128.418 182.342L128.283 184.112ZM166.211 173.723C171.616 170.233 176.519 165.949 179.947 161.706L178.566 160.59C175.277 164.663 170.523 168.825 165.248 172.232L166.211 173.723ZM179.947 161.706C182.827 158.14 185.765 152.905 187.205 148.766L185.528 148.183C184.159 152.12 181.324 157.176 178.566 160.59L179.947 161.706ZM187.205 148.766C187.54 147.803 188.1 146.535 188.427 145.978L186.896 145.08C186.491 145.772 185.886 147.155 185.528 148.183L187.205 148.766ZM188.427 145.978C188.816 145.314 189.478 143.983 189.91 143.003L188.286 142.287C187.87 143.23 187.239 144.495 186.896 145.08L188.427 145.978ZM189.91 143.003C196.006 129.179 193.33 111.824 183.475 102.134L182.231 103.399C191.492 112.506 194.124 129.046 188.286 142.287L189.91 143.003ZM183.475 102.134C180.727 99.432 178.654 98.0213 174.6 96.0689L173.83 97.6681C177.74 99.551 179.644 100.856 182.231 103.399L183.475 102.134ZM174.6 96.0689C171.53 94.591 169.104 93.7435 165.308 92.8166L164.887 94.5409C168.58 95.4428 170.888 96.2515 173.83 97.6681L174.6 96.0689ZM165.308 92.8166C163.733 92.432 161.829 91.8492 161.09 91.5364L160.398 93.1712C161.271 93.5401 163.285 94.1495 164.887 94.5409L165.308 92.8166ZM161.09 91.5364C158.063 90.257 154.154 89.1777 150.433 88.5874L150.155 90.3404C153.755 90.9116 157.523 91.9557 160.398 93.1712L161.09 91.5364ZM150.433 88.5874C147.769 88.1645 143.413 87.7461 141.562 87.7416L141.558 89.5166C143.284 89.5207 147.541 89.9256 150.155 90.3404L150.433 88.5874ZM141.562 87.7416C140.752 87.7397 139.114 87.6234 137.944 87.4816L137.731 89.2436C138.944 89.3907 140.656 89.5145 141.558 89.5166L141.562 87.7416ZM137.944 87.4816C135.048 87.1303 129.85 87.0009 127.291 87.2206L127.443 88.989C129.864 88.7812 134.938 88.9049 137.731 89.2436L137.944 87.4816ZM134.93 89.4923L135.923 89.6156L136.142 87.8542L135.149 87.7309L134.93 89.4923ZM135.902 87.857L135.09 87.977L135.35 89.7329L136.162 89.6128L135.902 87.857ZM135.09 87.977C134.65 88.0419 133.254 88.2339 131.986 88.4035L132.221 90.1628C133.488 89.9933 134.896 89.7998 135.349 89.7329L135.09 87.977ZM131.986 88.4035C131.345 88.4893 130.766 88.577 130.347 88.6498C130.141 88.6858 129.961 88.7204 129.828 88.7515C129.769 88.7653 129.686 88.786 129.608 88.8139C129.587 88.8217 129.48 88.859 129.369 88.9373C129.33 88.965 129.154 89.0896 129.055 89.3345C128.996 89.4799 128.966 89.668 129.014 89.8718C129.06 90.0693 129.163 90.2102 129.251 90.2983L130.507 89.0432C130.593 89.13 130.696 89.2695 130.742 89.4654C130.789 89.6677 130.759 89.8543 130.701 89.998C130.604 90.2397 130.43 90.3608 130.396 90.3849C130.336 90.4274 130.286 90.4517 130.265 90.4611C130.24 90.4726 130.221 90.4798 130.212 90.4831C130.186 90.4925 130.184 90.491 130.232 90.4797C130.314 90.4605 130.455 90.4328 130.652 90.3984C131.04 90.3308 131.595 90.2465 132.221 90.1628L131.986 88.4035ZM129.251 90.2983C129.394 90.4408 129.547 90.4958 129.588 90.5106C129.651 90.5329 129.704 90.5441 129.734 90.5497C129.794 90.5612 129.848 90.5657 129.88 90.5679C129.949 90.5726 130.024 90.5732 130.093 90.5726C130.236 90.5714 130.424 90.5638 130.638 90.5519C131.069 90.5278 131.646 90.4838 132.266 90.4258L132.1 88.6586C131.496 88.7151 130.943 88.7572 130.539 88.7797C130.336 88.7911 130.18 88.7969 130.078 88.7978C130.053 88.798 130.034 88.7979 130.02 88.7976C130.004 88.7973 129.999 88.7969 130.001 88.7971C130.002 88.7971 130.007 88.7975 130.016 88.7985C130.024 88.7994 130.041 88.8015 130.064 88.8058C130.083 88.8094 130.128 88.8186 130.184 88.8385C130.219 88.8509 130.367 88.9034 130.507 89.0432L129.251 90.2983ZM132.266 90.4258C138.084 89.8821 138.81 89.8717 140.373 90.1416L140.675 88.3926C138.834 88.0747 137.858 88.1206 132.1 88.6586L132.266 90.4258ZM140.373 90.1416C142.58 90.5224 145.171 91.1846 147.484 91.9609L148.049 90.2782C145.657 89.4755 142.978 88.7899 140.675 88.3925L140.373 90.1416ZM147.485 91.9609L149.47 92.6271L150.035 90.9443L148.049 90.2781L147.485 91.9609ZM149.708 90.8994L147.18 91.0277L147.27 92.8004L149.798 92.672L149.708 90.8994ZM147.18 91.0277C141.506 91.3155 137.86 91.7954 133.622 92.8218L134.04 94.5468C138.143 93.5531 141.674 93.0842 147.27 92.8004L147.18 91.0277ZM133.622 92.8218C130.857 93.4916 127.193 94.6732 125.214 95.5399L125.926 97.1657C127.784 96.3519 131.344 95.2 134.04 94.5468L133.622 92.8218ZM125.214 95.5399L123.761 96.1764L124.473 97.8022L125.926 97.1656L125.214 95.5399ZM124.105 96.1019L121.036 96.1427L121.06 97.9175L124.129 97.8767L124.105 96.1019ZM121.036 96.1427C118.971 96.1703 117.414 96.2902 115.964 96.6165C114.507 96.9446 113.199 97.472 111.621 98.2701L112.422 99.8539C113.924 99.0942 115.089 98.6329 116.354 98.3481C117.627 98.0616 119.042 97.9444 121.06 97.9175L121.036 96.1427ZM111.621 98.2701C107.168 100.523 102.684 105.028 99.9142 109.976L101.463 110.843C104.088 106.155 108.33 101.924 112.422 99.8539L111.621 98.2701ZM99.9142 109.976C97.9953 113.403 96.5806 116.912 95.5328 120.838L97.2477 121.296C98.2588 117.507 99.6188 114.136 101.463 110.843L99.9142 109.976ZM95.5328 120.838C95.2449 121.917 94.6519 123.573 94.2299 124.482L95.8398 125.229C96.3092 124.218 96.9359 122.464 97.2477 121.296L95.5328 120.838ZM94.2299 124.482C89.9428 133.719 89.0924 144.978 92.0539 153.874L93.738 153.313C90.9333 144.889 91.7239 134.097 95.8398 125.229L94.2299 124.482ZM92.0539 153.874C94.8286 162.208 100.183 168.603 108.41 173.477L109.315 171.95C101.417 167.271 96.3644 161.202 93.7379 153.313L92.0539 153.874ZM108.41 173.477C112.612 175.967 118.255 177.957 123.708 178.888L124.007 177.139C118.738 176.239 113.305 174.315 109.315 171.95L108.41 173.477ZM123.708 178.888C125.423 179.181 128.232 179.336 130.989 179.356C133.745 179.377 136.546 179.265 138.246 178.997L137.97 177.244C136.42 177.488 133.738 177.602 131.002 177.581C128.267 177.561 125.575 177.406 124.007 177.139L123.708 178.888ZM138.246 178.997C148.454 177.392 159.116 172.171 166.521 165.149L165.299 163.861C158.159 170.633 147.829 175.693 137.97 177.244L138.246 178.997ZM166.521 165.149C167.359 164.354 167.859 163.91 168.393 163.533C168.928 163.156 169.518 162.829 170.556 162.3L169.749 160.719C168.707 161.251 168.017 161.626 167.37 162.083C166.722 162.54 166.142 163.062 165.299 163.861L166.521 165.149ZM170.556 162.3C176.33 159.353 181.026 155.784 184.456 151.699L183.096 150.557C179.85 154.424 175.359 157.856 169.749 160.719L170.556 162.3ZM184.456 151.699C184.871 151.204 185.253 150.764 185.532 150.456C185.673 150.3 185.78 150.185 185.849 150.116C185.887 150.078 185.898 150.069 185.89 150.075C185.887 150.078 185.879 150.085 185.866 150.095C185.855 150.103 185.829 150.121 185.794 150.141C185.769 150.155 185.683 150.205 185.559 150.233C185.463 150.255 185.066 150.325 184.738 149.997L185.993 148.742C185.662 148.411 185.261 148.48 185.161 148.504C185.032 148.533 184.94 148.585 184.908 148.603C184.832 148.647 184.775 148.694 184.753 148.713C184.697 148.76 184.64 148.815 184.592 148.862C184.492 148.963 184.362 149.103 184.215 149.266C183.917 149.595 183.521 150.051 183.096 150.557L184.456 151.699ZM184.737 149.996C184.577 149.836 184.523 149.661 184.504 149.578C184.483 149.487 184.481 149.414 184.482 149.378C184.482 149.305 184.493 149.253 184.495 149.245C184.5 149.222 184.501 149.222 184.489 149.26C184.466 149.329 184.423 149.444 184.358 149.605C184.23 149.921 184.038 150.359 183.815 150.85C183.367 151.835 182.807 152.991 182.401 153.744L183.963 154.587C184.396 153.785 184.974 152.588 185.43 151.586C185.659 151.084 185.861 150.62 186.003 150.272C186.072 150.1 186.133 149.941 186.175 149.815C186.194 149.756 186.218 149.677 186.235 149.596C186.242 149.56 186.256 149.486 186.257 149.395C186.257 149.35 186.255 149.27 186.232 149.173C186.212 149.085 186.156 148.905 185.993 148.742L184.737 149.996ZM182.401 153.744C177.399 163.009 167.552 171.477 155.32 176.921L156.041 178.543C168.539 172.981 178.731 164.277 183.963 154.587L182.401 153.744ZM155.32 176.921C146.385 180.898 137.559 182.494 128.427 181.799L128.292 183.569C137.737 184.287 146.856 182.631 156.041 178.543L155.32 176.921ZM128.427 181.799C116.117 180.863 106.296 176.7 98.222 169.044L97.0008 170.332C105.402 178.298 115.62 182.605 128.292 183.569L128.427 181.799ZM98.222 169.044C91.575 162.741 87.1992 154.237 85.8331 144.945L84.0771 145.204C85.4995 154.879 90.0578 163.749 97.0008 170.332L98.222 169.044ZM85.8331 144.945C84.5847 136.453 86.1807 125.597 90.0316 116.603L88.4 115.905C84.4375 125.159 82.7749 136.346 84.0771 145.204L85.8331 144.945ZM90.0316 116.603C93.7168 107.997 98.6967 101.868 105.838 97.1071L104.854 95.6302C97.401 100.598 92.2087 107.01 88.4 115.905L90.0316 116.603ZM105.838 97.1071C112.554 92.6304 119.679 90.1486 127.803 89.4587L127.653 87.6901C119.234 88.4051 111.821 90.9858 104.854 95.6302L105.838 97.1071ZM127.803 89.4587C128.422 89.4061 129.958 89.3834 131.501 89.3912C133.057 89.3991 134.492 89.4378 134.93 89.4923L135.149 87.7309C134.583 87.6605 133.027 87.624 131.51 87.6163C129.981 87.6085 128.364 87.6297 127.653 87.6901L127.803 89.4587ZM146.802 90.4113C150.686 90.8552 153.607 91.4481 156.524 92.3763L157.062 90.6849C154.011 89.7142 150.973 89.1016 147.004 88.6479L146.802 90.4113ZM156.524 92.3763C157.279 92.6164 157.859 92.8104 158.271 92.9604C158.478 93.0357 158.634 93.0967 158.745 93.1445C158.875 93.2004 158.89 93.2161 158.858 93.1931C158.845 93.184 158.812 93.1598 158.772 93.1198C158.739 93.086 158.658 92.9987 158.6 92.8578C158.533 92.6974 158.492 92.4495 158.604 92.1869C158.706 91.9482 158.881 91.8268 158.972 91.7761C159.065 91.7239 159.144 91.7035 159.176 91.6961C159.214 91.6873 159.241 91.6846 159.249 91.6838C159.266 91.6822 159.261 91.6838 159.225 91.6826C159.067 91.6777 158.737 91.6399 158.195 91.5546L157.919 93.3079C158.456 93.3925 158.887 93.4478 159.169 93.4567C159.242 93.459 159.327 93.4591 159.413 93.4511C159.467 93.4461 159.652 93.4296 159.84 93.3243C159.945 93.2654 160.129 93.1344 160.236 92.885C160.353 92.6116 160.311 92.3518 160.239 92.1781C160.129 91.9123 159.922 91.772 159.888 91.7478C159.753 91.6514 159.583 91.5732 159.447 91.5145C159.292 91.4477 159.101 91.3735 158.878 91.2925C158.432 91.1301 157.825 90.9276 157.062 90.6849L156.524 92.3763ZM158.195 91.5546C157.556 91.4541 155.783 91.2898 154.256 91.1855L154.136 92.9563C155.665 93.0608 157.367 93.221 157.919 93.3079L158.195 91.5546ZM154.257 91.1855C152.971 91.0977 152.292 91.0382 151.72 90.9278C151.164 90.8206 150.689 90.6611 149.813 90.3339L149.192 91.9965C150.075 92.3268 150.671 92.533 151.384 92.6706C152.081 92.8051 152.869 92.8698 154.135 92.9563L154.257 91.1855ZM149.813 90.3338C148.738 89.9324 147.079 89.3894 146.107 89.1217L145.636 90.8329C146.55 91.0848 148.159 91.6109 149.192 91.9966L149.813 90.3338ZM146.107 89.1217C145.263 88.8894 144.652 88.7191 144.269 88.6002C144.068 88.5379 143.97 88.5016 143.937 88.4872C143.932 88.4849 143.944 88.4898 143.965 88.5019C143.976 88.5083 144.045 88.5468 144.12 88.6221C144.161 88.6624 144.442 88.9443 144.359 89.3944C144.275 89.8485 143.908 90.0112 143.853 90.035C143.754 90.0781 143.675 90.0887 143.662 90.0905C143.638 90.094 143.625 90.0942 143.631 90.0939C143.642 90.0935 143.677 90.0932 143.744 90.0961C143.877 90.1019 144.076 90.1173 144.354 90.1437C144.906 90.1962 145.714 90.287 146.802 90.4113L147.004 88.6479C145.921 88.5241 145.094 88.4312 144.522 88.3768C144.237 88.3497 144.001 88.3308 143.822 88.3229C143.734 88.319 143.644 88.3171 143.561 88.3204C143.525 88.3218 143.335 88.3249 143.147 88.4068C143.075 88.4378 142.699 88.6092 142.613 89.0734C142.529 89.5336 142.815 89.827 142.868 89.8802C143.013 90.0237 143.186 90.0959 143.219 90.1103C143.356 90.171 143.544 90.2336 143.743 90.2954C144.159 90.4246 144.801 90.6032 145.636 90.8329L146.107 89.1217ZM152.797 94.099C161.155 98.1282 167.791 104.724 172.283 113.499L173.863 112.69C169.205 103.592 162.296 96.7076 153.568 92.5002L152.797 94.099ZM172.283 113.499C177.397 123.489 178.929 132.902 177.041 142.347L178.782 142.695C180.76 132.798 179.13 122.979 173.863 112.69L172.283 113.499ZM177.041 142.348C176.159 146.761 174.152 151.514 171.42 155.631L172.899 156.612C175.747 152.321 177.85 147.355 178.782 142.695L177.041 142.348ZM171.42 155.631C170.744 156.65 169.782 157.953 168.884 159.092C167.965 160.258 167.179 161.168 166.84 161.463L168.005 162.802C168.493 162.378 169.382 161.328 170.278 160.191C171.195 159.027 172.188 157.684 172.899 156.612L171.42 155.631ZM166.84 161.463C166.84 161.463 166.839 161.464 166.837 161.465C166.836 161.467 166.833 161.469 166.83 161.471C166.823 161.476 166.813 161.483 166.801 161.492C166.775 161.51 166.741 161.532 166.696 161.559C166.606 161.614 166.488 161.679 166.34 161.754C166.043 161.905 165.654 162.084 165.186 162.284C164.251 162.683 163.036 163.151 161.691 163.635C159 164.602 155.833 165.614 153.415 166.231L153.853 167.951C156.343 167.315 159.567 166.285 162.292 165.305C163.656 164.815 164.905 164.333 165.882 163.916C166.37 163.708 166.8 163.512 167.145 163.336C167.468 163.172 167.789 162.99 168.005 162.802L166.84 161.463ZM153.415 166.231C146.726 167.937 141.809 168.519 135.238 168.385L135.202 170.159C141.94 170.297 147.017 169.695 153.853 167.951L153.415 166.231ZM135.238 168.385C130.184 168.282 127.553 167.964 123.856 167.026L123.419 168.746C127.281 169.726 130.052 170.054 135.202 170.159L135.238 168.385ZM123.856 167.026C114.946 164.766 107.146 159.189 102.16 151.516L100.671 152.483C105.903 160.533 114.079 166.377 123.419 168.746L123.856 167.026ZM102.16 151.516C100.175 148.461 98.2447 144.112 97.3609 140.707L95.6429 141.152C96.5763 144.749 98.5858 149.274 100.671 152.483L102.16 151.516ZM97.3608 140.707C96.5905 137.739 96.4804 136.727 96.4876 132.233L94.7126 132.23C94.7053 136.816 94.822 137.99 95.6429 141.153L97.3608 140.707ZM96.4876 132.233C96.4915 129.728 96.5768 127.793 96.7502 126.312C96.9252 124.818 97.183 123.853 97.4913 123.244L95.9078 122.443C95.4587 123.329 95.1708 124.539 94.9874 126.106C94.8024 127.685 94.7166 129.696 94.7126 132.23L96.4876 132.233ZM97.4913 123.244C98.395 121.46 99.9804 118.949 101.52 116.873L100.095 115.816C98.5104 117.951 96.8671 120.548 95.9078 122.443L97.4913 123.244ZM101.52 116.873C107.17 109.257 114.114 103.401 122.206 99.4136L121.421 97.8215C113.064 101.94 105.904 107.985 100.095 115.816L101.52 116.873ZM122.206 99.4136L124.235 98.4138L123.45 96.8217L121.421 97.8215L122.206 99.4136ZM123.681 98.4904L124.902 98.7159L125.224 96.9705L124.004 96.745L123.681 98.4904ZM124.902 98.7159C125.539 98.8336 126.741 99.1227 127.553 99.3552L128.041 97.6488C127.188 97.4046 125.93 97.1009 125.224 96.9705L124.902 98.7159ZM127.552 99.3551C127.98 99.4775 128.382 99.5822 128.689 99.6523C128.84 99.6867 128.982 99.716 129.097 99.734C129.151 99.7425 129.223 99.7524 129.296 99.7557C129.33 99.7573 129.396 99.7591 129.474 99.7497C129.513 99.7449 129.579 99.7346 129.657 99.7087C129.725 99.6858 129.872 99.6287 130.01 99.4911L128.754 98.2361C128.89 98.101 129.032 98.0459 129.096 98.0247C129.169 98.0005 129.228 97.9915 129.26 97.9877C129.323 97.9801 129.368 97.9822 129.377 97.9826C129.401 97.9837 129.404 97.9855 129.372 97.9806C129.316 97.9718 129.22 97.9529 129.084 97.9218C128.817 97.8608 128.446 97.7649 128.041 97.6489L127.552 99.3551ZM130.01 99.4911C130.156 99.3449 130.263 99.1365 130.275 98.8918C130.285 98.6714 130.214 98.502 130.163 98.4074C130.069 98.235 129.94 98.1305 129.897 98.0955C129.783 98.0049 129.651 97.9318 129.551 97.8807C129.333 97.7682 129.038 97.6426 128.724 97.5208C128.09 97.2758 127.275 97.007 126.613 96.8491L126.201 98.5756C126.765 98.7102 127.503 98.9515 128.083 99.1761C128.375 99.2892 128.603 99.3884 128.738 99.4584C128.816 99.4985 128.818 99.506 128.788 99.4815C128.785 99.4795 128.685 99.4043 128.604 99.2571C128.56 99.1751 128.492 99.0173 128.502 98.8074C128.513 98.5731 128.616 98.3741 128.754 98.2361L130.01 99.4911ZM126.613 96.8491C126.297 96.7736 125.997 96.6918 125.773 96.6226C125.66 96.5876 125.575 96.5588 125.521 96.5382C125.494 96.5276 125.485 96.5232 125.488 96.525C125.49 96.5259 125.503 96.532 125.522 96.5431C125.536 96.5515 125.582 96.5787 125.636 96.6259L124.468 97.9622C124.577 98.0574 124.691 98.1114 124.724 98.1271C124.78 98.1535 124.837 98.1767 124.888 98.1964C124.992 98.2361 125.117 98.2777 125.249 98.3186C125.516 98.401 125.854 98.4926 126.201 98.5755L126.613 96.8491ZM125.637 96.6273C125.764 96.7382 125.877 96.9044 125.919 97.1187C125.957 97.3207 125.917 97.4888 125.877 97.5931C125.808 97.7749 125.697 97.8778 125.681 97.893C125.626 97.9456 125.589 97.9627 125.627 97.94C125.681 97.9079 125.794 97.8491 125.977 97.7658C126.332 97.604 126.856 97.3904 127.463 97.1671L126.849 95.5015C126.217 95.7345 125.648 95.9649 125.24 96.151C125.042 96.2416 124.857 96.3327 124.717 96.416C124.658 96.451 124.551 96.5172 124.455 96.6089C124.419 96.6436 124.294 96.7636 124.219 96.9599C124.177 97.0713 124.136 97.246 124.176 97.4539C124.218 97.674 124.335 97.8454 124.466 97.9608L125.637 96.6273ZM127.463 97.1671C134.632 94.5266 140.809 93.3932 148.315 93.3389L148.302 91.564C140.588 91.6199 134.208 92.7915 126.849 95.5016L127.463 97.1671ZM148.315 93.3389L151.384 93.3167L151.371 91.5418L148.302 91.564L148.315 93.3389ZM150.992 93.2287L152.797 94.099L153.568 92.5002L151.763 91.6299L150.992 93.2287ZM157.595 93.7724C159.697 94.0129 160.737 94.1528 161.661 94.4437C162.577 94.732 163.409 95.1777 165.072 96.1212L165.948 94.5775C164.314 93.6503 163.32 93.1049 162.194 92.7506C161.076 92.3989 159.857 92.2447 157.797 92.009L157.595 93.7724ZM165.072 96.1212C173.254 100.764 179.63 107.541 183.412 115.591L185.019 114.837C181.071 106.436 174.431 99.3908 165.948 94.5775L165.072 96.1212ZM183.412 115.591C187.201 123.655 188.356 132.398 186.782 141.1L188.529 141.416C190.168 132.348 188.963 123.232 185.019 114.837L183.412 115.591ZM186.782 141.1C186.377 143.342 186.091 144.622 185.677 145.666C185.271 146.688 184.728 147.523 183.726 148.846L185.142 149.917C186.168 148.561 186.83 147.571 187.327 146.32C187.814 145.09 188.125 143.647 188.529 141.416L186.782 141.1ZM183.726 148.846C181.463 151.837 178.046 154.965 174.45 157.32L175.423 158.805C179.166 156.353 182.74 153.091 185.142 149.917L183.726 148.846ZM174.45 157.32C173.484 157.953 172.096 158.781 170.932 159.437C170.35 159.766 169.834 160.045 169.461 160.234C169.272 160.33 169.136 160.394 169.051 160.429C169.005 160.449 169.001 160.448 169.024 160.442C169.031 160.44 169.086 160.424 169.167 160.42C169.207 160.418 169.287 160.416 169.387 160.437C169.483 160.457 169.661 160.513 169.821 160.673L168.567 161.929C168.732 162.094 168.915 162.151 169.018 162.173C169.125 162.196 169.213 162.195 169.264 162.192C169.365 162.186 169.448 162.166 169.488 162.155C169.578 162.13 169.667 162.096 169.735 162.067C169.88 162.007 170.063 161.919 170.263 161.817C170.669 161.612 171.211 161.317 171.804 160.983C172.988 160.315 174.413 159.466 175.423 158.805L174.45 157.32ZM169.822 160.674C170 160.852 170.055 161.056 170.071 161.176C170.087 161.294 170.075 161.388 170.067 161.434C170.052 161.526 170.025 161.59 170.02 161.601C170.006 161.635 169.998 161.645 170.015 161.615C170.045 161.565 170.103 161.477 170.193 161.35C170.37 161.101 170.63 160.758 170.932 160.383L169.549 159.27C169.232 159.664 168.948 160.037 168.746 160.323C168.646 160.463 168.556 160.596 168.49 160.707C168.46 160.758 168.418 160.832 168.384 160.913C168.369 160.949 168.335 161.032 168.317 161.139C168.308 161.192 168.296 161.292 168.313 161.415C168.33 161.54 168.386 161.748 168.567 161.929L169.822 160.674ZM170.932 160.383C176.641 153.286 179.698 145.24 180.1 136.242L178.327 136.163C177.942 144.779 175.024 152.464 169.549 159.27L170.932 160.383ZM180.1 136.242C180.514 126.988 177.242 116.119 171.475 107.438L169.997 108.42C175.584 116.831 178.721 127.334 178.327 136.163L180.1 136.242ZM171.475 107.438C167.312 101.173 162.345 96.6207 155.698 92.9772L154.845 94.5337C161.243 98.0403 165.994 102.396 169.997 108.42L171.475 107.438ZM155.698 92.9773C155.102 92.6505 154.562 92.3488 154.173 92.1264C153.978 92.0147 153.825 91.9255 153.723 91.8641C153.671 91.8325 153.64 91.8134 153.627 91.8046C153.618 91.7985 153.629 91.8055 153.649 91.8207C153.656 91.8261 153.687 91.8508 153.725 91.8889C153.743 91.9066 153.784 91.9492 153.827 92.0118C153.848 92.0428 153.98 92.2303 153.98 92.5098H152.205C152.205 92.7901 152.338 92.9788 152.36 93.0112C152.403 93.0752 152.446 93.1195 152.465 93.139C152.507 93.181 152.544 93.2105 152.559 93.2217C152.593 93.2485 152.627 93.2711 152.647 93.2844C152.692 93.3141 152.748 93.3486 152.806 93.3837C152.925 93.4559 153.092 93.5532 153.292 93.6673C153.693 93.8964 154.242 94.2034 154.845 94.5337L155.698 92.9773ZM153.98 92.5098C153.98 93.0378 153.564 93.2613 153.507 93.2905C153.401 93.3458 153.311 93.3636 153.291 93.3675C153.237 93.3785 153.203 93.3784 153.223 93.3776C153.246 93.3766 153.307 93.3764 153.417 93.3807C153.629 93.389 153.949 93.4104 154.361 93.4445C155.179 93.5123 156.321 93.6267 157.595 93.7724L157.797 92.009C156.51 91.8619 155.35 91.7454 154.507 91.6756C154.088 91.6409 153.737 91.6169 153.486 91.6071C153.365 91.6024 153.246 91.6001 153.148 91.6042C153.106 91.606 153.026 91.6102 152.941 91.6275C152.906 91.6346 152.804 91.6559 152.689 91.7154C152.625 91.7487 152.205 91.9767 152.205 92.5098H153.98ZM167.08 95.64C178.566 98.9757 185.6 105.468 189.077 115.834L190.76 115.27C187.08 104.299 179.564 97.417 167.575 93.9355L167.08 95.64ZM189.077 115.834C191.499 123.055 191.434 131.817 188.899 139.14L190.576 139.72C193.237 132.033 193.308 122.869 190.76 115.27L189.077 115.834ZM188.899 139.14C188.536 140.187 188.101 141.301 187.743 142.131C187.563 142.549 187.409 142.88 187.298 143.09C187.271 143.142 187.249 143.182 187.232 143.212C187.213 143.243 187.205 143.254 187.207 143.251C187.208 143.25 187.217 143.238 187.233 143.22C187.246 143.205 187.281 143.167 187.336 143.125C187.38 143.092 187.512 142.997 187.715 142.966C187.974 142.925 188.258 143.003 188.465 143.211L187.21 144.466C187.425 144.681 187.719 144.762 187.989 144.72C188.203 144.686 188.348 144.585 188.407 144.541C188.531 144.447 188.611 144.338 188.643 144.294C188.724 144.182 188.802 144.044 188.87 143.916C189.012 143.646 189.186 143.267 189.373 142.834C189.748 141.963 190.2 140.809 190.576 139.72L188.899 139.14ZM188.464 143.209C188.599 143.344 188.654 143.487 188.672 143.538C188.694 143.603 188.704 143.656 188.708 143.682C188.716 143.735 188.717 143.772 188.717 143.776C188.717 143.789 188.716 143.781 188.719 143.741C188.726 143.667 188.74 143.547 188.763 143.384C188.81 143.062 188.885 142.619 188.978 142.136L187.235 141.801C187.138 142.304 187.058 142.775 187.007 143.131C186.981 143.307 186.961 143.467 186.951 143.593C186.946 143.653 186.941 143.726 186.942 143.797C186.942 143.83 186.944 143.89 186.955 143.96C186.96 143.994 186.972 144.055 186.996 144.125C187.016 144.182 187.073 144.329 187.211 144.467L188.464 143.209ZM188.978 142.136C189.531 139.264 189.725 136.975 189.724 133.456L187.949 133.457C187.95 136.887 187.762 139.06 187.235 141.8L188.978 142.136ZM189.724 133.456C189.72 126.151 188.266 119.967 185.033 113.521L183.447 114.317C186.554 120.512 187.946 126.424 187.949 133.457L189.724 133.456ZM185.033 113.521C181.122 105.722 174.653 98.9079 166.941 94.4531L166.053 95.99C173.471 100.275 179.694 106.835 183.447 114.317L185.033 113.521ZM166.941 94.4531C166.41 94.1463 166.045 93.9292 165.828 93.7851C165.709 93.7051 165.688 93.6823 165.707 93.7016C165.716 93.7103 165.74 93.7344 165.767 93.7724C165.792 93.8055 165.846 93.885 165.884 94.0039C165.924 94.1297 165.957 94.3455 165.86 94.5852C165.762 94.8269 165.585 94.9602 165.463 95.024C165.349 95.0836 165.25 95.1012 165.209 95.1073C165.16 95.1144 165.125 95.1144 165.113 95.1142C165.088 95.1139 165.086 95.1118 165.121 95.1171C165.188 95.1273 165.303 95.1513 165.484 95.1962C165.841 95.2846 166.365 95.4324 167.08 95.64L167.575 93.9355C166.864 93.7289 166.307 93.5715 165.911 93.4734C165.716 93.4249 165.538 93.3853 165.39 93.3626C165.317 93.3515 165.228 93.3407 165.136 93.3394C165.084 93.3388 164.865 93.3336 164.641 93.4507C164.505 93.522 164.318 93.6647 164.215 93.9179C164.114 94.1691 164.147 94.3984 164.192 94.5397C164.266 94.7745 164.418 94.9228 164.455 94.9599C164.57 95.0742 164.72 95.1795 164.844 95.2621C165.116 95.4429 165.53 95.6879 166.053 95.99L166.941 94.4531ZM122.033 98.3674C122.093 98.368 122.101 98.3706 122.082 98.3678C122.073 98.3664 122.027 98.3596 121.966 98.3372C121.914 98.3185 121.768 98.2602 121.635 98.1099C121.471 97.9238 121.395 97.673 121.43 97.4257C121.458 97.2259 121.549 97.0967 121.582 97.0532C121.646 96.9671 121.701 96.9369 121.653 96.9715C121.479 97.0969 120.985 97.3677 119.915 97.9278L120.737 99.5004C121.742 98.9748 122.385 98.6312 122.689 98.4122C122.761 98.3608 122.894 98.2613 123 98.1198C123.054 98.0486 123.156 97.895 123.187 97.674C123.225 97.4055 123.144 97.1365 122.966 96.9348C122.819 96.7689 122.651 96.6977 122.57 96.6684C122.479 96.6353 122.397 96.6201 122.343 96.6122C122.237 96.5963 122.129 96.5933 122.049 96.5926L122.033 98.3674ZM119.915 97.9278C115.537 100.218 112.373 102.373 108.598 105.632L109.758 106.975C113.43 103.804 116.482 101.727 120.737 99.5004L119.915 97.9278ZM108.598 105.632C104.942 108.787 100.819 113.477 98.1627 117.5L99.6439 118.478C102.21 114.591 106.225 110.025 109.758 106.975L108.598 105.632ZM98.1626 117.5C97.4334 118.605 96.7367 119.658 96.6132 119.842L98.0879 120.83C98.2156 120.639 98.9166 119.58 99.6439 118.478L98.1626 117.5ZM96.6133 119.842C96.5722 119.903 96.5858 119.871 96.6462 119.817C96.6658 119.8 96.7889 119.688 96.9972 119.64C97.1181 119.612 97.2845 119.602 97.4662 119.663C97.6508 119.725 97.7843 119.838 97.8709 119.948C98.0186 120.136 98.0384 120.324 98.0421 120.355C98.0489 120.413 98.0458 120.452 98.0457 120.453C98.0453 120.46 98.0472 120.434 98.0622 120.363C98.1225 120.074 98.2894 119.519 98.5404 118.788C99.035 117.349 99.7967 115.401 100.48 113.945L98.8726 113.191C98.1568 114.718 97.3721 116.727 96.8618 118.212C96.6103 118.943 96.4101 119.592 96.3249 119.999C96.3034 120.102 96.2828 120.218 96.275 120.331C96.2712 120.386 96.2683 120.468 96.2792 120.562C96.2869 120.627 96.3149 120.841 96.4747 121.044C96.5674 121.162 96.708 121.281 96.9008 121.345C97.0907 121.409 97.2664 121.399 97.3975 121.369C97.6265 121.316 97.7745 121.189 97.8235 121.146C97.9426 121.04 98.0329 120.912 98.0878 120.83L96.6133 119.842ZM100.48 113.945C104.157 106.102 109.956 100.636 116.21 98.8815L115.73 97.1725C108.842 99.1055 102.7 105.028 98.8726 113.191L100.48 113.945ZM116.21 98.8815C116.816 98.7115 117.859 98.5309 118.86 98.4089C119.354 98.3485 119.821 98.3045 120.2 98.2833C120.39 98.2726 120.551 98.2681 120.678 98.2692C120.741 98.2698 120.791 98.2718 120.83 98.2744C120.87 98.2773 120.887 98.2802 120.887 98.2801L121.209 96.5347C120.917 96.4808 120.496 96.4889 120.101 96.5111C119.673 96.5352 119.165 96.5835 118.645 96.647C117.615 96.7726 116.467 96.966 115.73 97.1726L116.21 98.8815ZM120.887 98.2801C121.159 98.3304 121.665 98.364 122.033 98.3674L122.049 96.5926C121.722 96.5895 121.334 96.5577 121.209 96.5347L120.887 98.2801ZM94.4301 126.592C94.0795 128.915 94.0263 134.362 94.3263 136.859L96.0886 136.647C95.8062 134.296 95.8602 129.01 96.1852 126.857L94.4301 126.592ZM94.3263 136.859C95.3022 144.982 99.2502 153.027 105.16 158.955L106.417 157.702C100.78 152.047 97.0159 144.366 96.0886 136.647L94.3263 136.859ZM105.16 158.955C110.482 164.295 116.702 167.75 124.096 169.475L124.499 167.747C117.426 166.096 111.503 162.805 106.417 157.702L105.16 158.955ZM124.096 169.475C130.419 170.951 138.939 171.145 146.544 170.006L146.281 168.251C138.855 169.362 130.566 169.163 124.499 167.747L124.096 169.475ZM146.544 170.006C152.697 169.085 159.908 167.056 165.596 164.646L164.903 163.012C159.354 165.363 152.288 167.351 146.281 168.251L146.544 170.006ZM165.596 164.646C165.708 164.598 165.787 164.567 165.84 164.549C165.919 164.522 165.876 164.545 165.78 164.55C165.751 164.552 165.53 164.567 165.297 164.418C165.159 164.329 165.036 164.193 164.964 164.014C164.897 163.846 164.896 163.694 164.908 163.594C164.93 163.419 165.001 163.306 165.008 163.295C165.026 163.265 165.037 163.253 165.026 163.266C164.974 163.329 164.826 163.479 164.516 163.757C164.221 164.023 163.817 164.375 163.286 164.83L164.441 166.177C164.973 165.721 165.392 165.357 165.705 165.075C166.003 164.806 166.247 164.575 166.394 164.397C166.434 164.349 166.482 164.286 166.527 164.213C166.56 164.158 166.646 164.01 166.67 163.808C166.684 163.695 166.683 163.531 166.611 163.353C166.536 163.164 166.405 163.02 166.258 162.925C166.007 162.763 165.756 162.774 165.686 162.778C165.51 162.787 165.344 162.842 165.26 162.871C165.151 162.909 165.029 162.958 164.903 163.012L165.596 164.646ZM163.286 164.83C155.828 171.225 146.094 175.611 136.649 176.842L136.879 178.602C146.676 177.326 156.729 172.79 164.441 166.177L163.286 164.83ZM136.649 176.842C133.891 177.201 128.605 177.202 125.857 176.843L125.627 178.603C128.528 178.982 133.968 178.981 136.879 178.602L136.649 176.842ZM125.857 176.843C117.605 175.767 110.41 172.697 104.267 167.645L103.14 169.016C109.551 174.289 117.06 177.486 125.627 178.603L125.857 176.843ZM104.267 167.645C98.6548 163.029 94.7445 156.556 93.3135 149.521L91.5742 149.875C93.0874 157.313 97.2165 164.144 103.14 169.016L104.267 167.645ZM93.3135 149.521C92.0292 143.208 92.4738 136.477 94.6133 130.023L92.9286 129.464C90.6967 136.197 90.2249 143.242 91.5742 149.875L93.3135 149.521ZM94.6133 130.023C95.0156 128.809 95.3875 127.775 95.6694 127.066C95.8121 126.707 95.9237 126.452 95.9993 126.303C96.042 126.219 96.0512 126.213 96.0296 126.241C96.0215 126.252 96.0032 126.275 95.975 126.303C95.95 126.328 95.8946 126.38 95.8096 126.429C95.7283 126.475 95.5591 126.554 95.3304 126.541C95.0714 126.526 94.8646 126.4 94.7322 126.252L96.0567 125.07C95.9174 124.914 95.7024 124.785 95.4341 124.769C95.1962 124.755 95.0166 124.837 94.9239 124.89C94.7539 124.988 94.6527 125.12 94.6221 125.16C94.5375 125.27 94.4673 125.4 94.4159 125.501C94.3033 125.724 94.168 126.038 94.0201 126.41C93.721 127.162 93.3371 128.232 92.9286 129.464L94.6133 130.023ZM94.7312 126.251C94.6547 126.165 94.6118 126.082 94.5898 126.034C94.5662 125.982 94.5525 125.938 94.5447 125.91C94.5297 125.856 94.5244 125.814 94.5226 125.799C94.5189 125.767 94.5197 125.751 94.5197 125.766C94.5196 125.791 94.5175 125.844 94.5105 125.931C94.4968 126.099 94.4691 126.334 94.4301 126.592L96.1851 126.858C96.2287 126.57 96.2618 126.293 96.2795 126.075C96.2882 125.969 96.2945 125.861 96.2946 125.768C96.2947 125.724 96.2935 125.661 96.2855 125.593C96.2817 125.56 96.2738 125.503 96.2555 125.437C96.2442 125.396 96.1987 125.23 96.0578 125.072L94.7312 126.251Z" fill="white"/>
</svg>
