<svg width="25" height="31" viewBox="0 0 25 31" fill="none" xmlns="http://www.w3.org/2000/svg">
    <g clip-path="url(#clip0_701_8)">
        <path
            d="M0 11.2V10.1C1.3 10.1 2.6 9.6 3.6 8.6C4.5 7.7 5 6.4 5 5.1H6C6 6.4 6.5 7.7 7.5 8.6C8.4 9.5 9.7 10.1 11.1 10.1V11.2C9.8 11.2 8.5 11.7 7.5 12.7C6.6 13.6 6 14.8 6 16.2H5C5 14.9 4.5 13.6 3.5 12.7C2.6 11.7 1.3 11.2 0 11.2ZM5 3.2H13.7C17.9 3.2 21 6.2 21 10.6C21 15 18 18 13.7 18H5V30.6H8.6V21.2H13.6C19.7 21.2 24.5 16.4 24.5 10.6C24.6 4.8 19.8 0 13.7 0H5V3.2Z"
            fill="white" />
    </g>
    <defs>
        <clipPath id="clip0_701_8">
            <rect width="24.6" height="30.6" fill="white" />
        </clipPath>
    </defs>
</svg>